<svg xmlns="http://www.w3.org/2000/svg" version="1.1" xmlns:xlink="http://www.w3.org/1999/xlink" width="1500" height="1500" viewBox="0 0 1500 1500"><rect width="1500" height="1500" x="0" y="0" id="background" stroke="transparent" fill="#ffffff"></rect><svg xml:space="preserve" width="1000" height="1000" data-version="2" data-id="lg_bYsRLFNTuBO7yj8IH6" viewBox="0 0 522 143" x="250" y="250"><rect width="100%" height="100%" fill="transparent"></rect><rect width="510.78" height="113.43" x="-255.39" y="-56.71" fill="#ffffff" rx="0" ry="0" transform="translate(261 58.88)"></rect><path d="M28.91 84.947H17.29v-43.74h10.87l.59 5.07q1.82-2.25 4.19-3.53 2.36-1.29 4.81-1.79 2.45-.49 4.44-.49 6.31 0 9.84 2.73 3.52 2.74 5.06 7.35 1.54 4.61 1.54 10.25v24.15H47.01v-22.66q0-1.99-.34-3.98-.33-1.99-1.2-3.65-.87-1.66-2.45-2.66-1.58-.99-4.15-.99-3.32 0-5.56 1.66-2.24 1.66-3.32 4.48-1.08 2.82-1.08 6.22z"></path><rect width="41.34" height="44.48" x="-20.67" y="-22.24" fill="none" rx="0" ry="0" transform="translate(38.46 63.2)"></rect><path d="M76.39 84.947H63.44l15.27-22.32-14.52-21.42h13.53l8.63 13.78 8.46-13.78h13.12l-14.61 21.67 15.6 22.07H95.39l-9.54-14.36z"></path><rect width="45.48" height="43.74" x="-22.74" y="-21.87" fill="none" rx="0" ry="0" transform="translate(86.68 63.58)"></rect><path d="M122.87 84.947h-12.95l15.27-22.32-14.52-21.42h13.53l8.63 13.78 8.46-13.78h13.12l-14.61 21.67 15.6 22.07h-13.53l-9.54-14.36z"></path><rect width="45.48" height="43.74" x="-22.74" y="-21.87" fill="none" rx="0" ry="0" transform="translate(133.16 63.58)"></rect><path d="M184.45 84.947h-4.15q-5.47 0-9.17-1.32-3.69-1.33-5.56-4.53-1.87-3.19-1.87-8.75v-18.76h-6.47v-10.38h6.47v-11.7h11.62v11.7h9.55v10.38h-9.55v17.1q0 2.73 1 4.31 1 1.58 4.48 1.58h3.65z"></path><rect width="27.64" height="55.44" x="-13.82" y="-27.72" fill="none" rx="0" ry="0" transform="translate(171.55 57.73)"></rect><path d="M210.43 85.527q-6.72 0-11.49-2.73-4.78-2.74-7.27-7.76-2.49-5.03-2.49-11.83 0-6.89 2.58-12 2.57-5.1 7.43-7.92 4.85-2.82 11.74-2.82 5.31 0 9.46 1.9 4.15 1.91 6.68 5.48 2.54 3.57 2.95 8.8h-11.37q-.75-2.9-2.86-4.23-2.12-1.33-5.03-1.33-3.73 0-5.93 1.83-2.2 1.82-3.15 4.64-.96 2.83-.96 5.65 0 3.07 1 5.77.99 2.69 3.19 4.4 2.2 1.7 5.77 1.7 2.99 0 5.23-1.37t2.91-4.28h11.62q-.42 5.4-3.24 8.97-2.82 3.57-7.18 5.35-4.36 1.78-9.59 1.78"></path><rect width="41.26" height="45.06" x="-20.63" y="-22.53" fill="none" rx="0" ry="0" transform="translate(210.31 63.5)"></rect><path d="M249.11 84.947h-11.62v-43.74h10.46l.75 5.23q1.66-2.49 3.73-3.77 2.08-1.29 4.32-1.75 2.24-.45 4.56-.45 1.08 0 1.99.04.92.04 1.33.04v11.2h-2.74q-3.9 0-6.8 1.33-2.91 1.33-4.44 4.15-1.54 2.82-1.54 7.22z"></path><rect width="27.14" height="44.48" x="-13.57" y="-22.24" fill="none" rx="0" ry="0" transform="translate(251.56 63.2)"></rect><path d="M290.11 85.527q-6.89 0-11.7-2.73-4.81-2.74-7.39-7.76-2.57-5.03-2.57-11.75 0-6.81 2.66-11.91 2.65-5.1 7.51-8.01 4.85-2.9 11.49-2.9 4.98 0 8.76 1.66 3.78 1.66 6.39 4.64 2.61 2.99 3.9 6.93 1.29 3.95 1.2 8.51 0 1.16-.08 2.24-.08 1.08-.33 2.16h-29.96q.25 2.49 1.41 4.57 1.16 2.07 3.28 3.27 2.11 1.21 5.27 1.21 2.07 0 3.81-.46 1.75-.46 2.99-1.45 1.25-1 1.75-2.33h11.45q-1.08 4.9-4.03 8.06-2.94 3.15-7.09 4.6-4.15 1.45-8.72 1.45m-9.87-27.05h19q-.08-2.24-1.12-4.19-1.04-1.96-3.07-3.16-2.03-1.2-5.19-1.2-3.15 0-5.27 1.24-2.11 1.25-3.15 3.2-1.04 1.95-1.2 4.11"></path><rect width="41.94" height="45.06" x="-20.97" y="-22.53" fill="none" rx="0" ry="0" transform="translate(289.92 63.5)"></rect><path d="M331.7 85.527q-2.99 0-5.77-.78-2.78-.79-4.94-2.45-2.16-1.66-3.4-4.15-1.25-2.49-1.25-5.81 0-4.48 1.83-7.18 1.82-2.7 4.89-4.11 3.07-1.41 7.1-1.91 4.03-.5 8.34-.5h6.31q0-2.4-.87-4.27-.87-1.87-2.62-2.91-1.74-1.03-4.48-1.03-1.74 0-3.36.45-1.62.46-2.7 1.29-1.08.83-1.41 2.16h-11.78q.49-3.66 2.32-6.27 1.83-2.61 4.56-4.27 2.74-1.66 6.02-2.45 3.28-.79 6.77-.79 9.54 0 14.11 5.44 4.56 5.43 4.56 15.39v23.57h-10.46l-.16-5.64q-2.08 2.9-4.69 4.23-2.62 1.33-5.02 1.66-2.41.33-3.9.33m2.65-9.21q2.91 0 5.31-1.16 2.41-1.16 3.82-3.15 1.41-2 1.41-4.49v-1.08h-7.97q-1.74 0-3.36.17-1.62.17-2.9.62-1.29.46-2.04 1.46-.74.99-.74 2.65t.87 2.78q.87 1.12 2.36 1.66 1.5.54 3.24.54"></path><rect width="39.59" height="44.98" x="-19.8" y="-22.49" fill="none" rx="0" ry="0" transform="translate(336.63 63.54)"></rect><path d="M388.97 84.947h-4.15q-5.48 0-9.18-1.32-3.69-1.33-5.56-4.53-1.86-3.19-1.86-8.75v-18.76h-6.48v-10.38h6.48v-11.7h11.62v11.7h9.54v10.38h-9.54v17.1q0 2.73.99 4.31 1 1.58 4.48 1.58h3.66z"></path><rect width="27.64" height="55.44" x="-13.82" y="-27.72" fill="none" rx="0" ry="0" transform="translate(376.06 57.73)"></rect><path d="M406.98 84.947h-11.62v-43.74h11.62zm-5.81-48.14q-3.24 0-5.23-1.95-1.99-1.95-1.99-5.02 0-3.24 2.07-5.23 2.08-1.99 5.23-1.99 2.9 0 5.02 1.95 2.12 1.95 2.12 5.19 0 3.15-2.04 5.1-2.03 1.95-5.18 1.95"></path><rect width="14.44" height="62.33" x="-7.22" y="-31.16" fill="none" rx="0" ry="0" transform="translate(401.67 54.28)"></rect><path d="M442.58 84.947h-15.6l-15.36-43.74h12.7l10.46 34.28 10.38-34.28h12.78z"></path><rect width="46.32" height="43.74" x="-23.16" y="-21.87" fill="none" rx="0" ry="0" transform="translate(435.28 63.58)"></rect><path d="M482.51 85.527q-6.89 0-11.71-2.73-4.81-2.74-7.38-7.76-2.58-5.03-2.58-11.75 0-6.81 2.66-11.91 2.66-5.1 7.51-8.01 4.86-2.9 11.5-2.9 4.98 0 8.75 1.66 3.78 1.66 6.39 4.64 2.62 2.99 3.9 6.93 1.29 3.95 1.21 8.51 0 1.16-.08 2.24-.09 1.08-.34 2.16h-29.96q.25 2.49 1.41 4.57 1.16 2.07 3.28 3.27 2.12 1.21 5.27 1.21 2.08 0 3.82-.46 1.74-.46 2.99-1.45 1.24-1 1.74-2.33h11.45q-1.08 4.9-4.02 8.06-2.95 3.15-7.1 4.6-4.15 1.45-8.71 1.45m-9.88-27.05h19.01q-.09-2.24-1.12-4.19-1.04-1.96-3.08-3.16-2.03-1.2-5.18-1.2-3.16 0-5.27 1.24-2.12 1.25-3.16 3.2-1.03 1.95-1.2 4.11"></path><rect width="41.95" height="45.06" x="-20.97" y="-22.53" fill="none" rx="0" ry="0" transform="translate(482.31 63.5)"></rect><path d="M117.97 133.027h-2.91l8.15-21.92h3.88l8.12 21.92h-2.92l-1.73-4.71h-10.85zm7.16-19.56-4.52 12.4h9.05z"></path><rect width="20.15" height="21.92" x="-10.07" y="-10.96" fill="none" rx="0" ry="0" transform="translate(125.64 122.57)"></rect><path d="M140.23 138.917h-2.64v-22.23h2.52l.12 2.45q.84-1.27 2.28-1.95 1.44-.68 3.11-.68 2.48 0 4.06 1.1 1.59 1.1 2.34 2.99.76 1.89.76 4.28 0 2.38-.77 4.27-.78 1.89-2.39 2.98-1.61 1.08-4.12 1.08-1.24 0-2.23-.26t-1.74-.77q-.74-.52-1.3-1.2zm5.05-8.03q1.8 0 2.85-.82 1.06-.82 1.54-2.19.48-1.36.48-3 0-1.68-.48-3.04-.48-1.37-1.57-2.17-1.08-.81-2.88-.81-1.61 0-2.74.82-1.13.82-1.72 2.2-.59 1.38-.59 3.03 0 1.7.56 3.07.55 1.36 1.7 2.13 1.15.78 2.85.78"></path><rect width="15.19" height="22.41" x="-7.59" y="-11.21" fill="none" rx="0" ry="0" transform="translate(145.69 128.21)"></rect><path d="M158.95 138.917h-2.63v-22.23h2.51l.12 2.45q.84-1.27 2.28-1.95 1.44-.68 3.12-.68 2.48 0 4.06 1.1 1.58 1.1 2.34 2.99.76 1.89.76 4.28 0 2.38-.78 4.27-.77 1.89-2.38 2.98-1.62 1.08-4.13 1.08-1.24 0-2.23-.26t-1.73-.77q-.75-.52-1.31-1.2zm5.06-8.03q1.79 0 2.85-.82 1.05-.82 1.53-2.19.48-1.36.48-3 0-1.68-.48-3.04-.48-1.37-1.56-2.17-1.09-.81-2.89-.81-1.61 0-2.74.82-1.13.82-1.72 2.2-.59 1.38-.59 3.03 0 1.7.56 3.07.56 1.36 1.7 2.13 1.15.78 2.86.78"></path><rect width="15.19" height="22.41" x="-7.59" y="-11.21" fill="none" rx="0" ry="0" transform="translate(164.41 128.21)"></rect><path d="M177.68 133.027h-2.64v-21.92h2.64z"></path><rect width="2.64" height="21.92" x="-1.32" y="-10.96" fill="none" rx="0" ry="0" transform="translate(176.86 122.57)"></rect><path d="M184.47 133.027h-2.64v-16.34h2.64zm-1.34-18.76q-.8 0-1.28-.49-.48-.5-.48-1.27 0-.78.49-1.26.5-.48 1.27-.48.72 0 1.26.5.54.49.54 1.24 0 .77-.53 1.27-.52.49-1.27.49"></path><rect width="3.56" height="22.26" x="-1.78" y="-11.13" fill="none" rx="0" ry="0" transform="translate(183.65 122.4)"></rect><path d="M195.69 133.207q-2.61 0-4.31-1.07-1.71-1.06-2.54-2.96-.84-1.89-.84-4.3 0-2.45.88-4.33.89-1.87 2.59-2.96 1.71-1.08 4.19-1.08 1.92 0 3.3.72 1.38.73 2.28 1.94.9 1.21 1.3 2.65t.34 2.9q-.03.28-.05.56-.01.28-.04.56h-12.12q.12 1.42.71 2.57t1.67 1.81q1.09.67 2.7.67.81 0 1.63-.2.82-.2 1.49-.7.66-.5.94-1.33h2.7q-.37 1.58-1.4 2.59-1.02 1-2.45 1.48-1.42.48-2.97.48m-4.96-9.67h9.45q-.03-1.39-.62-2.45-.59-1.05-1.59-1.64-1.01-.59-2.41-.59-1.51 0-2.55.65-1.04.65-1.6 1.71-.56 1.05-.68 2.32"></path><rect width="14.91" height="16.7" x="-7.45" y="-8.35" fill="none" rx="0" ry="0" transform="translate(195.95 125.36)"></rect><path d="M212.92 133.207q-2.44 0-4.03-1.1-1.58-1.1-2.35-2.97-.78-1.88-.78-4.23 0-2.36.78-4.27.77-1.9 2.39-3.02 1.61-1.11 4.12-1.11.96 0 1.94.23.97.23 1.84.71.87.48 1.49 1.29v-7.63h2.63v21.92h-2.51l-.12-2.45q-.56.93-1.41 1.5-.85.58-1.88.86-1.02.27-2.11.27m.38-2.32q1.64 0 2.76-.84 1.11-.83 1.7-2.23.59-1.39.59-3.04 0-1.7-.57-3.04-.58-1.33-1.69-2.1-1.12-.78-2.82-.78-1.77 0-2.84.81-1.07.8-1.55 2.18-.48 1.38-.48 3.09 0 1.24.26 2.31.27 1.07.84 1.89.57.82 1.5 1.28.93.47 2.3.47"></path><rect width="15.19" height="22.1" x="-7.59" y="-11.05" fill="none" rx="0" ry="0" transform="translate(213.85 122.66)"></rect><path d="M236.79 133.027h-2.69v-21.92h2.69z"></path><rect width="2.69" height="21.92" x="-1.34" y="-10.96" fill="none" rx="0" ry="0" transform="translate(235.94 122.57)"></rect><path d="M244.2 133.027h-2.63v-16.34h2.54l.12 1.95q.53-.74 1.2-1.2.66-.47 1.49-.7.82-.23 1.75-.23 1.7 0 2.76.72 1.05.73 1.58 1.91.56-.84 1.28-1.43.73-.58 1.65-.89.91-.31 2.03-.31 1.8 0 2.9.77 1.1.78 1.59 2.09.5 1.32.5 2.96v10.7h-2.64v-9.36q0-.81-.07-1.65-.08-.83-.39-1.56-.31-.73-.92-1.18-.6-.45-1.69-.45-1.02 0-1.72.48-.69.48-1.13 1.29-.43.8-.62 1.72-.18.91-.18 1.81v8.9h-2.64v-9.39q0-.78-.08-1.62-.07-.83-.34-1.56-.26-.73-.87-1.18-.6-.45-1.65-.45-1.49 0-2.33.85-.84.86-1.16 2.08-.33 1.22-.33 2.4z"></path><rect width="21.39" height="16.52" x="-10.7" y="-8.26" fill="none" rx="0" ry="0" transform="translate(252.76 125.27)"></rect><path d="M272.2 133.207q-1.12 0-2.16-.29t-1.86-.9q-.82-.6-1.3-1.52-.48-.91-.48-2.12 0-1.4.51-2.36t1.38-1.52q.87-.55 2.02-.8 1.14-.25 2.38-.25h4.81q0-1.4-.39-2.42t-1.26-1.6q-.86-.57-2.29-.57-.87 0-1.61.19-.75.18-1.27.59-.53.4-.78 1.08h-2.82q.22-1.11.85-1.91.64-.79 1.55-1.3.92-.51 1.97-.76 1.06-.24 2.11-.24 3.53 0 5.02 2.07 1.49 2.08 1.49 5.61v8.84h-2.2l-.16-2.08q-.68.93-1.64 1.43-.96.49-1.97.66-1 .17-1.9.17m.24-2.32q1.55 0 2.69-.51 1.13-.51 1.75-1.51.62-.99.62-2.41v-.81h-2.89q-1.02 0-2.01.03-.99.03-1.8.25-.8.22-1.29.74-.48.53-.48 1.52 0 .93.48 1.52.49.59 1.28.88.79.3 1.65.3"></path><rect width="13.67" height="16.7" x="-6.83" y="-8.35" fill="none" rx="0" ry="0" transform="translate(273.74 125.36)"></rect><path d="M291.26 140.337q-1.67 0-3.1-.51-1.42-.51-2.42-1.59-.99-1.09-1.33-2.76h2.73q.25.93.93 1.49.68.55 1.58.79.9.23 1.77.23 1.67 0 2.71-.67 1.04-.66 1.5-1.83.47-1.16.47-2.65v-2.26q-.53.93-1.4 1.52-.87.59-1.89.85t-2.11.26q-2.48 0-4.06-1.1-1.58-1.1-2.34-2.97-.76-1.88-.76-4.23 0-2.36.78-4.27.77-1.9 2.38-3.02 1.62-1.11 4.13-1.11 1.42 0 2.88.52 1.46.53 2.39 1.71l.12-2.05h2.51v16.21q0 2.3-.82 3.97-.82 1.68-2.48 2.58-1.66.89-4.17.89m-.18-9.45q1.64 0 2.75-.84 1.12-.83 1.71-2.23.59-1.39.59-3.04 0-1.7-.58-3.04-.57-1.33-1.68-2.1-1.12-.78-2.83-.78-1.76 0-2.83.81-1.07.8-1.55 2.17-.48 1.36-.48 3.04 0 1.73.49 3.1.5 1.36 1.58 2.13 1.09.78 2.83.78"></path><rect width="15.19" height="23.83" x="-7.59" y="-11.91" fill="none" rx="0" ry="0" transform="translate(291.63 128.92)"></rect><path d="M305.52 133.027h-2.63v-16.34h2.63zm-1.33-18.76q-.81 0-1.29-.49-.48-.5-.48-1.27 0-.78.5-1.26.49-.48 1.27-.48.71 0 1.25.5.55.49.55 1.24 0 .77-.53 1.27-.53.49-1.27.49"></path><rect width="3.57" height="22.26" x="-1.78" y="-11.13" fill="none" rx="0" ry="0" transform="translate(304.7 122.4)"></rect><path d="M312.31 133.027h-2.63v-16.34h2.54l.12 2.48q.56-.9 1.43-1.49.87-.59 1.9-.88 1.04-.29 2.03-.29 2.39 0 3.74.99t1.92 2.68q.58 1.69.58 3.83v9.02h-2.64v-8.31q0-1.15-.14-2.2-.14-1.05-.56-1.89-.42-.84-1.19-1.32-.78-.48-2.08-.48-1.61 0-2.74.9-1.13.9-1.71 2.42-.57 1.52-.57 3.41z"></path><rect width="14.26" height="16.52" x="-7.13" y="-8.26" fill="none" rx="0" ry="0" transform="translate(317.31 125.27)"></rect><path d="M333.24 133.207q-1.12 0-2.16-.29t-1.86-.9q-.82-.6-1.3-1.52-.48-.91-.48-2.12 0-1.4.51-2.36t1.38-1.52q.87-.55 2.01-.8 1.15-.25 2.39-.25h4.81q0-1.4-.39-2.42t-1.26-1.6q-.86-.57-2.29-.57-.87 0-1.61.19-.75.18-1.27.59-.53.4-.78 1.08h-2.82q.22-1.11.85-1.91.64-.79 1.55-1.3.92-.51 1.97-.76 1.06-.24 2.11-.24 3.53 0 5.02 2.07 1.49 2.08 1.49 5.61v8.84h-2.2l-.16-2.08q-.68.93-1.64 1.43-.96.49-1.97.66-1.01.17-1.9.17m.24-2.32q1.55 0 2.68-.51 1.14-.51 1.76-1.51.62-.99.62-2.41v-.81h-2.89q-1.02 0-2.01.03-.99.03-1.8.25t-1.29.74q-.48.53-.48 1.52 0 .93.48 1.52t1.27.88q.8.3 1.66.3"></path><rect width="13.67" height="16.7" x="-6.83" y="-8.35" fill="none" rx="0" ry="0" transform="translate(334.77 125.36)"></rect><path d="M353.6 133.027h-1.76q-1.86 0-3-.56-1.13-.56-1.64-1.74-.51-1.17-.51-2.97v-8.74h-2.67v-2.33h2.67v-4.87h2.63v4.87h4.38v2.33h-4.38v8.46q0 1.67.61 2.46.6.79 2.46.79h1.21z"></path><rect width="9.68" height="21.21" x="-4.84" y="-10.61" fill="none" rx="0" ry="0" transform="translate(349.36 122.92)"></rect><path d="M359.31 133.027h-2.64v-16.34h2.64zm-1.34-18.76q-.8 0-1.28-.49-.48-.5-.48-1.27 0-.78.49-1.26.5-.48 1.27-.48.72 0 1.26.5.54.49.54 1.24 0 .77-.53 1.27-.52.49-1.27.49"></path><rect width="3.56" height="22.26" x="-1.78" y="-11.13" fill="none" rx="0" ry="0" transform="translate(358.49 122.4)"></rect><path d="M370.59 133.207q-2.57 0-4.31-1.07-1.73-1.06-2.59-2.96-.85-1.89-.85-4.3 0-2.45.87-4.33.87-1.87 2.6-2.96 1.74-1.08 4.34-1.08 2.58 0 4.3 1.08 1.72 1.09 2.57 2.96.85 1.88.85 4.33 0 2.41-.87 4.3-.86 1.9-2.59 2.96-1.72 1.07-4.32 1.07m0-2.32q1.8 0 2.93-.81 1.13-.8 1.67-2.17.55-1.36.55-3.03 0-1.68-.55-3.04-.54-1.37-1.67-2.17-1.13-.81-2.93-.81-1.77 0-2.9.81-1.13.8-1.67 2.17-.54 1.36-.54 3.04 0 1.67.54 3.03.54 1.37 1.67 2.17 1.13.81 2.9.81"></path><rect width="15.53" height="16.7" x="-7.76" y="-8.35" fill="none" rx="0" ry="0" transform="translate(371.1 125.36)"></rect><path d="M384.54 133.027h-2.63v-16.34h2.54l.12 2.48q.56-.9 1.43-1.49.87-.59 1.9-.88 1.04-.29 2.03-.29 2.39 0 3.74.99t1.92 2.68q.58 1.69.58 3.83v9.02h-2.64v-8.31q0-1.15-.14-2.2-.14-1.05-.56-1.89-.42-.84-1.19-1.32-.78-.48-2.08-.48-1.61 0-2.74.9-1.13.9-1.71 2.42-.57 1.52-.57 3.41z"></path><rect width="14.26" height="16.52" x="-7.13" y="-8.26" fill="none" rx="0" ry="0" transform="translate(389.54 125.27)"></rect></svg></svg>